HIERARCHY
ROOT Hips
{
	OFFSET 0.000000 0.000000 0.000000
	CHANNELS 6 Xposition Yposition Zposition Xrotation Yrotation Zrotation
	JOINT LeftUpLeg_virtual
	{
		OFFSET 0.000000 0.000000 0.000000
		CHANNELS 3 Xrotation Yrotation Zrotation
		JOINT LeftUpLeg
		{
			OFFSET 11.394100 -6.187798 -0.413800
			CHANNELS 3 Xrotation Yrotation Zrotation
			JOINT LeftLeg
			{
				OFFSET 0.430247 -32.302673 3.732800
				CHANNELS 3 Xrotation Yrotation Zrotation
				JOINT LeftFoot
				{
					OFFSET -0.430247 -48.264931 -6.423300
					CHANNELS 3 Xrotation Yrotation Zrotation
					JOINT LeftToeBase
					{
						OFFSET 4.230900 -16.068199 23.438400
						CHANNELS 3 Xrotation Yrotation Zrotation
						JOINT LeftToe_End
						{
							OFFSET 4.510700 0.695400 19.974600
							CHANNELS 3 Xrotation Yrotation Zrotation
							End Site
							{
								OFFSET 0 0 0
							}
						}
					}
				}
			}
		}
	}
	JOINT RightUpLeg_virtual
	{
		OFFSET 0.000000 0.000000 0.000000
		CHANNELS 3 Xrotation Yrotation Zrotation
		JOINT RightUpLeg
		{
			OFFSET -11.333700 -6.187798 -0.413800
			CHANNELS 3 Xrotation Yrotation Zrotation
			JOINT RightLeg
			{
				OFFSET -0.430392 -32.302628 3.733000
				CHANNELS 3 Xrotation Yrotation Zrotation
				JOINT RightFoot
				{
					OFFSET 0.430392 -48.264973 -6.423500
					CHANNELS 3 Xrotation Yrotation Zrotation
					JOINT RightToeBase
					{
						OFFSET -4.230900 -16.068199 23.438400
						CHANNELS 3 Xrotation Yrotation Zrotation
						JOINT RightToe_End
						{
							OFFSET -4.510700 0.695400 19.974600
							CHANNELS 3 Xrotation Yrotation Zrotation
							End Site
							{
								OFFSET 0 0 0
							}
						}
					}
				}
			}
		}
	}
	JOINT Spine_virtual
	{
		OFFSET 0.000000 0.000000 0.000000
		CHANNELS 3 Xrotation Yrotation Zrotation
		JOINT Spine
		{
			OFFSET -0.002400 12.777504 0.315300
			CHANNELS 3 Xrotation Yrotation Zrotation
			JOINT Spine1
			{
				OFFSET -0.002067 5.816869 0.032633
				CHANNELS 3 Xrotation Yrotation Zrotation
				JOINT Spine1_split
				{
					OFFSET -0.002067 5.816869 0.032633
					CHANNELS 3 Xrotation Yrotation Zrotation
					JOINT Spine2
					{
						OFFSET -0.002067 5.816869 0.032633
						CHANNELS 3 Xrotation Yrotation Zrotation
						JOINT Neck_virtual
						{
							OFFSET 0.000000 0.000000 0.000000
							CHANNELS 3 Xrotation Yrotation Zrotation
							JOINT Neck
							{
								OFFSET -0.003700 21.199493 -0.826900
								CHANNELS 3 Xrotation Yrotation Zrotation
								JOINT Head
								{
									OFFSET 0.000000 20.442200 4.834800
									CHANNELS 3 Xrotation Yrotation Zrotation
									JOINT HeadTop_End
									{
										OFFSET 0.000000 34.668396 4.968400
										CHANNELS 3 Xrotation Yrotation Zrotation
										End Site
										{
											OFFSET 0 0 0
										}
									}
								}
							}
						}
						JOINT LeftShoulder_virtual
						{
							OFFSET 0.000000 0.000000 0.000000
							CHANNELS 3 Xrotation Yrotation Zrotation
							JOINT LeftShoulder
							{
								OFFSET 3.288150 8.794197 -1.372250
								CHANNELS 3 Xrotation Yrotation Zrotation
								JOINT LeftShoulder_split
								{
									OFFSET 3.288150 8.794197 -1.372250
									CHANNELS 3 Xrotation Yrotation Zrotation
									JOINT LeftArm
									{
										OFFSET 11.953299 -2.279007 -0.146200
										CHANNELS 3 Xrotation Yrotation Zrotation
										JOINT LeftForeArm
										{
											OFFSET 18.448900 0.000000 0.000000
											CHANNELS 3 Xrotation Yrotation Zrotation
											JOINT LeftHand
											{
												OFFSET 29.527798 0.000000 0.000000
												CHANNELS 3 Xrotation Yrotation Zrotation
												End Site
												{
													OFFSET 0 0 0
												}
											}
										}
									}
								}
							}
						}
						JOINT RightShoulder_virtual
						{
							OFFSET 0.000000 0.000000 0.000000
							CHANNELS 3 Xrotation Yrotation Zrotation
							JOINT RightShoulder
							{
								OFFSET -3.249400 8.794197 -1.372250
								CHANNELS 3 Xrotation Yrotation Zrotation
								JOINT RightShoulder_split
								{
									OFFSET -3.249400 8.794197 -1.372250
									CHANNELS 3 Xrotation Yrotation Zrotation
									JOINT RightArm
									{
										OFFSET -11.953299 -2.279007 -0.146200
										CHANNELS 3 Xrotation Yrotation Zrotation
										JOINT RightForeArm
										{
											OFFSET -18.448900 0.000000 0.000000
											CHANNELS 3 Xrotation Yrotation Zrotation
											JOINT RightHand
											{
												OFFSET -29.527802 0.000000 0.000000
												CHANNELS 3 Xrotation Yrotation Zrotation
												End Site
												{
													OFFSET 0 0 0
												}
											}
										}
									}
								}
							}
						}
					}
				}
			}
		}
	}
}
MOTION
Frames: 8
Frame Time: 0.03333333
-0.177212 83.748436 2.726200 0.000000 0.000000 0.000000 6.755727 -51.089057 8.032361 -67.233097 24.412952 37.248068 47.472352 -16.236231 5.897235 5.991233 2.355850 -9.639922 -1.802979 -5.885600 1.109963 0.000000 0.000000 0.000000 3.738564 -50.502641 7.463669 -33.641643 2.108507 -22.757017 45.837908 2.386187 -9.741485 -18.516643 -1.403477 23.528456 1.952031 4.962477 2.963836 0.000000 0.000000 0.000000 8.969501 -50.201433 9.220574 13.133969 2.406555 -3.159463 4.457744 6.619684 -3.686859 0.402803 -2.514298 1.285934 0.000000 0.000000 0.000000 -4.170757 6.224478 -2.045250 0.985956 10.743985 -1.120680 -5.201767 24.630757 -1.617676 0.000000 0.000000 0.000000 -5.481804 6.232095 -2.385586 -1.327571 -10.095031 -4.409314 4.065663 -0.868343 -0.457716 -14.534561 1.752380 -44.119327 -23.197891 -27.708039 -15.600456 0.000000 0.000000 0.000000 -5.137080 5.882804 -2.305067 -2.611323 13.079964 0.756038 -1.894544 -4.495720 2.625318 0.006591 -14.598882 58.657350 -10.237339 44.394327 18.348371 0.000000 0.000000 0.000000 
-0.243502 83.778427 2.656982 0.000000 0.000000 0.000000 7.009623 -51.523925 8.044564 -67.085298 24.259971 37.499624 47.590794 -16.369119 5.959885 5.269598 2.104923 -9.264481 -1.664898 -5.823922 1.130546 0.000000 0.000000 0.000000 3.999454 -50.405683 7.382996 -33.621347 2.351484 -22.471901 45.747603 2.487822 -9.744975 -18.556835 -1.161355 23.967921 1.592811 5.103941 2.823220 0.000000 0.000000 0.000000 9.077357 -50.462756 9.193081 13.127838 2.441686 -3.326769 4.533416 6.614406 -3.779481 0.547571 -2.440950 1.337552 0.000000 0.000000 0.000000 -4.199697 6.244005 -2.096334 0.671772 10.706211 -1.178083 -5.299934 24.729523 -1.606495 0.000000 0.000000 0.000000 -5.317743 6.255047 -2.446915 -1.337966 -10.127603 -4.308938 3.937572 -0.838773 -0.175496 -14.443074 1.802167 -43.759741 -23.143679 -27.521527 -15.607303 0.000000 0.000000 0.000000 -5.125522 5.881018 -2.437661 -2.501690 13.749767 0.937099 -1.271425 -4.906843 1.923251 0.322326 -14.889056 56.435254 -7.387434 40.724371 16.822440 0.000000 0.000000 0.000000 
-0.290311 83.761734 2.366524 0.000000 0.000000 0.000000 7.572051 -52.104675 8.210375 -66.484413 24.180910 37.744394 47.181376 -16.437503 5.878413 4.292173 2.014537 -9.125368 -1.647938 -5.670242 1.125596 0.000000 0.000000 0.000000 4.306114 -50.686007 7.358853 -34.200369 2.549922 -22.070472 45.832106 2.257442 -9.766118 -18.227989 -0.679463 24.208735 1.514981 5.085518 2.924028 0.000000 0.000000 0.000000 9.352071 -50.766392 9.225182 13.128947 2.558613 -3.456677 4.695584 6.623141 -3.919309 0.434670 -2.426414 1.335655 0.000000 0.000000 0.000000 -4.119180 6.258543 -2.223817 0.287219 10.638408 -1.264436 -5.266819 24.752812 -1.709341 0.000000 0.000000 0.000000 -5.049734 6.250543 -2.617978 -1.341875 -9.952207 -4.178547 3.813310 -0.812022 0.026174 -14.834759 1.938302 -43.164890 -22.885068 -27.300630 -15.440799 0.000000 0.000000 0.000000 -5.047652 5.896774 -2.665712 -2.544355 14.479053 1.172246 -1.053783 -4.882878 1.270607 1.224062 -15.625823 54.537370 -1.476721 37.224944 13.423338 0.000000 0.000000 0.000000 
-0.390221 83.680336 1.903522 0.000000 0.000000 0.000000 8.238033 -52.571211 8.455935 -65.678737 24.194847 37.998064 46.353513 -16.498412 5.688758 3.799024 1.957377 -9.346071 -1.831393 -5.445943 1.015085 0.000000 0.000000 0.000000 4.697268 -51.002771 7.471900 -35.250702 2.741054 -21.693173 46.384682 1.617162 -9.814369 -17.719240 -0.133709 24.318757 1.552664 4.866982 3.191071 0.000000 0.000000 0.000000 9.629009 -50.867871 9.308262 13.117216 2.721736 -3.518190 4.900298 6.617783 -4.104650 0.255551 -2.636300 1.252239 0.000000 0.000000 0.000000 -3.931673 6.234356 -2.425095 -0.087108 10.540509 -1.383603 -5.072820 24.651145 -1.922206 0.000000 0.000000 0.000000 -4.760778 6.204264 -2.880713 -1.335573 -9.550786 -3.968604 3.657606 -1.027287 0.160091 -15.703609 2.012302 -42.520400 -22.438076 -27.068965 -15.155701 0.000000 0.000000 0.000000 -4.921147 5.883218 -2.942774 -2.692160 15.225410 1.543853 -0.977376 -4.882298 0.801203 2.736477 -16.009818 53.181420 5.966580 34.804510 9.263511 0.000000 0.000000 0.000000 
-0.576645 83.637566 1.375076 0.000000 0.000000 0.000000 8.661063 -52.553965 8.619840 -64.909904 24.298253 38.246737 45.244163 -16.572821 5.389707 4.326538 1.695614 -9.899803 -2.195132 -5.193901 0.774704 0.000000 0.000000 0.000000 5.037489 -50.935159 7.632763 -36.310314 2.813771 -21.433694 47.331964 0.557682 -9.933407 -17.086560 0.284654 24.596230 1.013120 4.445105 3.389080 0.000000 0.000000 0.000000 9.698347 -50.450516 9.355808 13.076409 2.855869 -3.528880 5.113564 6.583698 -4.321420 -0.001726 -3.097539 1.080956 0.000000 0.000000 0.000000 -3.710868 6.137966 -2.684429 -0.384029 10.385368 -1.554534 -4.767805 24.353912 -2.231147 0.000000 0.000000 0.000000 -4.514799 6.114015 -3.205789 -1.302475 -8.983977 -3.663156 3.434859 -1.388252 0.441441 -16.861536 1.833246 -42.092957 -21.857119 -26.997318 -14.841806 0.000000 0.000000 0.000000 -4.770241 5.810073 -3.214337 -2.814877 15.992172 2.133378 -1.179011 -5.077503 0.655765 4.789643 -15.419734 52.372729 13.861002 33.516527 4.835404 0.000000 0.000000 0.000000 
-0.814141 83.759720 0.802963 0.000000 0.000000 0.000000 8.699732 -51.747128 8.606116 -64.395973 24.433410 38.396127 43.816637 -16.590456 4.965392 5.856321 1.043209 -10.526378 -2.505091 -4.950578 0.497515 0.000000 0.000000 0.000000 5.319650 -49.998682 7.807670 -36.702961 2.703382 -21.299677 48.363678 -0.855181 -10.138072 -16.653410 0.512515 25.078225 -0.168288 3.905933 3.309365 0.000000 0.000000 0.000000 9.505848 -49.209187 9.314906 13.028291 2.916660 -3.492568 5.320855 6.502663 -4.541726 -0.238506 -3.358911 1.045551 0.000000 0.000000 0.000000 -3.512612 5.982143 -2.957890 -0.642100 10.144705 -1.781975 -4.424145 23.755961 -2.622106 0.000000 0.000000 0.000000 -4.340577 5.962981 -3.537066 -1.236010 -8.355570 -3.255331 3.162928 -1.699600 0.976586 -18.098089 1.296390 -42.090248 -21.186904 -27.239942 -14.589615 0.000000 0.000000 0.000000 -4.640608 5.693685 -3.445801 -2.817087 16.749439 2.951185 -1.223450 -5.007351 0.418038 7.169267 -13.468004 51.600706 21.188183 32.658474 0.639397 0.000000 0.000000 0.000000 
-1.113028 84.084709 0.067760 0.000000 0.000000 0.000000 8.338100 -49.934372 8.372769 -64.033829 24.448759 38.327729 42.184181 -16.604704 4.407568 7.885776 -0.031403 -11.186830 -2.528500 -4.757675 0.246187 0.000000 0.000000 0.000000 5.589198 -47.959857 7.929611 -36.005875 2.184319 -21.283457 49.010828 -2.616753 -10.355526 -16.874117 0.440212 25.549414 -1.007881 3.387137 2.972972 0.000000 0.000000 0.000000 9.101616 -47.116086 9.147948 13.020861 2.875878 -3.473032 5.559003 6.368050 -4.773263 -0.435643 -3.428288 0.994666 0.000000 0.000000 0.000000 -3.357238 5.790474 -3.197950 -1.000542 9.732395 -2.074176 -4.113204 22.821122 -3.051482 0.000000 0.000000 0.000000 -4.244216 5.780927 -3.830689 -1.150677 -7.796765 -2.763121 2.939318 -1.840610 1.694474 -19.350889 0.355139 -42.685646 -20.499059 -27.805400 -14.438436 0.000000 0.000000 0.000000 -4.507327 5.539996 -3.614884 -2.654407 17.331769 3.900864 -1.165074 -4.837779 -0.038701 9.934712 -9.747362 50.280957 27.092915 31.679094 -2.809497 0.000000 0.000000 0.000000 
-1.428225 84.646011 -0.690075 0.000000 0.000000 0.000000 7.857425 -46.986620 8.039661 -63.581459 24.304233 37.814939 40.526449 -16.460891 3.685687 9.371829 -1.237493 -11.770648 -2.105495 -4.624260 0.027872 0.000000 0.000000 0.000000 5.706311 -44.894253 7.872912 -34.237515 1.117656 -21.346745 48.896966 -4.622891 -10.508543 -17.963358 0.119896 25.873860 -1.020831 2.971864 2.472041 0.000000 0.000000 0.000000 8.618438 -44.202826 8.857885 13.100190 2.724404 -3.507428 5.873094 6.229275 -4.997862 -0.544774 -3.319515 1.060335 0.000000 0.000000 0.000000 -3.236797 5.610138 -3.391302 -1.566907 9.064453 -2.379595 -3.871390 21.523830 -3.442255 0.000000 0.000000 0.000000 -4.152242 5.625793 -4.052071 -1.059790 -7.350549 -2.265951 2.660884 -1.969945 2.513018 -20.637201 -0.883956 -43.942773 -19.869732 -28.679654 -14.424355 0.000000 0.000000 0.000000 -4.334587 5.395616 -3.724146 -2.284942 17.445264 4.827062 -1.215059 -4.667882 -0.704018 12.898104 -4.610824 47.991764 30.914191 30.414067 -5.173615 0.000000 0.000000 0.000000 
